<svg xmlns="http://www.w3.org/2000/svg" xmlns:xlink="http://www.w3.org/1999/xlink" width="146" zoomAndPan="magnify" viewBox="0 0 109.5 79.499998" height="106" preserveAspectRatio="xMidYMid meet" version="1.0"><defs><clipPath id="10f76e88a1"><path d="M 0.09375 0 L 108.910156 0 L 108.910156 79 L 0.09375 79 Z M 0.09375 0 " clip-rule="nonzero"/></clipPath><clipPath id="dfdee47e39"><path d="M 0.09375 0 L 108.910156 0 L 108.910156 79 L 0.09375 79 Z M 0.09375 0 " clip-rule="nonzero"/></clipPath></defs><g clip-path="url(#10f76e88a1)"><path fill="#004aad" d="M 20.691406 2.976562 C 18.386719 2.976562 16.515625 4.84375 16.515625 7.148438 L 16.515625 52.8125 L 3.820312 67.960938 C 3.328125 68.550781 3.054688 69.300781 3.054688 70.066406 L 3.054688 71.914062 C 3.054688 74.0625 4.800781 75.804688 6.949219 75.804688 L 101.753906 75.804688 C 103.898438 75.804688 105.648438 74.0625 105.648438 71.914062 L 105.648438 70.066406 C 105.648438 69.300781 105.375 68.550781 104.882812 67.953125 L 92.1875 52.8125 L 92.1875 7.148438 C 92.1875 4.84375 90.316406 2.976562 88.007812 2.976562 Z M 101.753906 78.800781 L 6.949219 78.800781 C 3.152344 78.800781 0.0585938 75.710938 0.0585938 71.914062 L 0.0585938 70.066406 C 0.0585938 68.597656 0.578125 67.164062 1.527344 66.035156 L 13.519531 51.71875 L 13.519531 7.148438 C 13.519531 3.191406 16.738281 -0.0195312 20.691406 -0.0195312 L 88.007812 -0.0195312 C 91.964844 -0.0195312 95.183594 3.191406 95.183594 7.148438 L 95.183594 51.71875 L 107.175781 66.027344 C 108.125 67.164062 108.644531 68.597656 108.644531 70.066406 L 108.644531 71.914062 C 108.644531 75.710938 105.550781 78.800781 101.753906 78.800781 " fill-opacity="1" fill-rule="nonzero"/></g><path fill="#004aad" d="M 93.683594 53.761719 L 15.015625 53.761719 L 15.015625 50.765625 L 93.683594 50.765625 L 93.683594 53.761719 " fill-opacity="1" fill-rule="nonzero"/><path fill="#004aad" d="M 107.148438 69.824219 L 65.109375 69.824219 L 65.109375 66.832031 L 107.148438 66.832031 L 107.148438 69.824219 " fill-opacity="1" fill-rule="nonzero"/><path fill="#004aad" d="M 43.589844 69.824219 L 1.554688 69.824219 L 1.554688 66.832031 L 43.589844 66.832031 L 43.589844 69.824219 " fill-opacity="1" fill-rule="nonzero"/><path fill="#004aad" d="M 93.683594 11.085938 L 15.015625 11.085938 L 15.015625 8.089844 L 93.683594 8.089844 L 93.683594 11.085938 " fill-opacity="1" fill-rule="nonzero"/><path fill="#004aad" d="M 44.429688 63.683594 L 44.269531 63.875 L 45.523438 70.480469 C 45.539062 70.550781 45.605469 70.609375 45.6875 70.609375 L 63.015625 70.609375 C 63.097656 70.609375 63.160156 70.550781 63.179688 70.480469 L 64.429688 63.875 L 64.273438 63.683594 Z M 63.015625 73.605469 L 45.6875 73.605469 C 44.171875 73.605469 42.867188 72.523438 42.585938 71.042969 L 41.328125 64.4375 C 41.144531 63.511719 41.390625 62.558594 41.996094 61.832031 C 42.597656 61.109375 43.480469 60.6875 44.429688 60.6875 L 64.273438 60.6875 C 65.222656 60.6875 66.105469 61.109375 66.707031 61.832031 C 67.308594 62.558594 67.554688 63.511719 67.375 64.4375 L 66.117188 71.035156 C 65.835938 72.523438 64.53125 73.605469 63.015625 73.605469 " fill-opacity="1" fill-rule="nonzero"/><path fill="#004aad" d="M 37.519531 30.46875 L 37.523438 30.46875 C 37.523438 30.46875 37.523438 30.46875 37.519531 30.46875 Z M 44.6875 41.742188 C 44.289062 41.742188 43.894531 41.585938 43.597656 41.273438 L 35.34375 32.527344 C 34.5 31.632812 34.5 30.234375 35.34375 29.339844 L 43.597656 20.59375 C 44.171875 19.992188 45.113281 19.960938 45.714844 20.527344 C 46.316406 21.097656 46.347656 22.042969 45.78125 22.648438 L 37.957031 30.929688 L 45.78125 39.214844 C 46.347656 39.816406 46.316406 40.765625 45.714844 41.332031 C 45.429688 41.609375 45.054688 41.742188 44.6875 41.742188 " fill-opacity="1" fill-rule="nonzero"/><path fill="#004aad" d="M 71.175781 30.46875 Z M 71.175781 31.394531 L 71.195312 31.394531 Z M 64.015625 41.742188 C 63.648438 41.742188 63.273438 41.609375 62.988281 41.332031 C 62.382812 40.765625 62.355469 39.816406 62.921875 39.214844 L 70.746094 30.929688 L 62.921875 22.648438 C 62.355469 22.042969 62.382812 21.097656 62.988281 20.527344 C 63.589844 19.960938 64.53125 19.992188 65.105469 20.59375 L 73.359375 29.332031 C 74.203125 30.234375 74.203125 31.632812 73.355469 32.527344 L 65.105469 41.273438 C 64.804688 41.585938 64.414062 41.742188 64.015625 41.742188 " fill-opacity="1" fill-rule="nonzero"/><path fill="#004aad" d="M 51.390625 44.605469 C 51.273438 44.605469 51.152344 44.59375 51.035156 44.5625 C 50.226562 44.363281 49.734375 43.554688 49.929688 42.75 L 55.859375 18.40625 C 56.054688 17.597656 56.871094 17.105469 57.667969 17.304688 C 58.476562 17.496094 58.96875 18.304688 58.773438 19.113281 L 52.839844 43.464844 C 52.675781 44.140625 52.0625 44.605469 51.390625 44.605469 " fill-opacity="1" fill-rule="nonzero"/><g clip-path="url(#dfdee47e39)"><path fill="#004aad" d="M 20.691406 2.976562 C 18.386719 2.976562 16.515625 4.84375 16.515625 7.148438 L 16.515625 52.8125 L 3.820312 67.960938 C 3.328125 68.550781 3.054688 69.300781 3.054688 70.066406 L 3.054688 71.914062 C 3.054688 74.0625 4.800781 75.804688 6.949219 75.804688 L 101.753906 75.804688 C 103.898438 75.804688 105.648438 74.0625 105.648438 71.914062 L 105.648438 70.066406 C 105.648438 69.300781 105.375 68.550781 104.882812 67.953125 L 92.1875 52.8125 L 92.1875 7.148438 C 92.1875 4.84375 90.316406 2.976562 88.007812 2.976562 Z M 101.753906 78.800781 L 6.949219 78.800781 C 3.152344 78.800781 0.0585938 75.710938 0.0585938 71.914062 L 0.0585938 70.066406 C 0.0585938 68.597656 0.578125 67.164062 1.527344 66.035156 L 13.519531 51.71875 L 13.519531 7.148438 C 13.519531 3.191406 16.738281 -0.0195312 20.691406 -0.0195312 L 88.007812 -0.0195312 C 91.964844 -0.0195312 95.183594 3.191406 95.183594 7.148438 L 95.183594 51.71875 L 107.175781 66.027344 C 108.125 67.164062 108.644531 68.597656 108.644531 70.066406 L 108.644531 71.914062 C 108.644531 75.710938 105.550781 78.800781 101.753906 78.800781 " fill-opacity="1" fill-rule="nonzero"/></g><path fill="#004aad" d="M 93.683594 53.761719 L 15.015625 53.761719 L 15.015625 50.765625 L 93.683594 50.765625 L 93.683594 53.761719 " fill-opacity="1" fill-rule="nonzero"/><path fill="#004aad" d="M 107.148438 69.824219 L 65.109375 69.824219 L 65.109375 66.832031 L 107.148438 66.832031 L 107.148438 69.824219 " fill-opacity="1" fill-rule="nonzero"/><path fill="#004aad" d="M 43.589844 69.824219 L 1.554688 69.824219 L 1.554688 66.832031 L 43.589844 66.832031 L 43.589844 69.824219 " fill-opacity="1" fill-rule="nonzero"/><path fill="#004aad" d="M 93.683594 11.085938 L 15.015625 11.085938 L 15.015625 8.089844 L 93.683594 8.089844 L 93.683594 11.085938 " fill-opacity="1" fill-rule="nonzero"/><path fill="#004aad" d="M 44.429688 63.683594 L 44.269531 63.875 L 45.523438 70.480469 C 45.539062 70.550781 45.605469 70.609375 45.6875 70.609375 L 63.015625 70.609375 C 63.097656 70.609375 63.160156 70.550781 63.179688 70.480469 L 64.429688 63.875 L 64.273438 63.683594 Z M 63.015625 73.605469 L 45.6875 73.605469 C 44.171875 73.605469 42.867188 72.523438 42.585938 71.042969 L 41.328125 64.4375 C 41.144531 63.511719 41.390625 62.558594 41.996094 61.832031 C 42.597656 61.109375 43.480469 60.6875 44.429688 60.6875 L 64.273438 60.6875 C 65.222656 60.6875 66.105469 61.109375 66.707031 61.832031 C 67.308594 62.558594 67.554688 63.511719 67.375 64.4375 L 66.117188 71.035156 C 65.835938 72.523438 64.53125 73.605469 63.015625 73.605469 " fill-opacity="1" fill-rule="nonzero"/><path fill="#004aad" d="M 37.519531 30.46875 L 37.523438 30.46875 C 37.523438 30.46875 37.523438 30.46875 37.519531 30.46875 Z M 44.6875 41.742188 C 44.289062 41.742188 43.894531 41.585938 43.597656 41.273438 L 35.34375 32.527344 C 34.5 31.632812 34.5 30.234375 35.34375 29.339844 L 43.597656 20.59375 C 44.171875 19.992188 45.113281 19.960938 45.714844 20.527344 C 46.316406 21.097656 46.347656 22.042969 45.78125 22.648438 L 37.957031 30.929688 L 45.78125 39.214844 C 46.347656 39.816406 46.316406 40.765625 45.714844 41.332031 C 45.429688 41.609375 45.054688 41.742188 44.6875 41.742188 " fill-opacity="1" fill-rule="nonzero"/><path fill="#004aad" d="M 71.175781 30.46875 Z M 71.175781 31.394531 L 71.195312 31.394531 Z M 64.015625 41.742188 C 63.648438 41.742188 63.273438 41.609375 62.988281 41.332031 C 62.382812 40.765625 62.355469 39.816406 62.921875 39.214844 L 70.746094 30.929688 L 62.921875 22.648438 C 62.355469 22.042969 62.382812 21.097656 62.988281 20.527344 C 63.589844 19.960938 64.53125 19.992188 65.105469 20.59375 L 73.359375 29.332031 C 74.203125 30.234375 74.203125 31.632812 73.355469 32.527344 L 65.105469 41.273438 C 64.804688 41.585938 64.414062 41.742188 64.015625 41.742188 " fill-opacity="1" fill-rule="nonzero"/><path fill="#004aad" d="M 51.390625 44.605469 C 51.273438 44.605469 51.152344 44.59375 51.035156 44.5625 C 50.226562 44.363281 49.734375 43.554688 49.929688 42.75 L 55.859375 18.40625 C 56.054688 17.597656 56.871094 17.105469 57.667969 17.304688 C 58.476562 17.496094 58.96875 18.304688 58.773438 19.113281 L 52.839844 43.464844 C 52.675781 44.140625 52.0625 44.605469 51.390625 44.605469 " fill-opacity="1" fill-rule="nonzero"/></svg>